<svg width="26" height="26" viewBox="0 0 26 26" fill="none" xmlns="http://www.w3.org/2000/svg">
<g clip-path="url(#clip0_402_499)">
<path d="M20.2159 8.32787C20.9845 4.99016 20.556 2.58517 19.0201 1.69815C17.4847 0.81213 15.1877 1.64348 12.681 3.9775C10.1746 1.64303 7.8776 0.811635 6.3411 1.6983C5.57548 2.14042 5.06754 2.99133 4.87221 4.15911L5.73441 4.30333C5.8874 3.38868 6.23859 2.76698 6.77817 2.45536C7.91881 1.79686 9.91843 2.6135 12.0538 4.58845C11.231 5.42643 10.4288 6.38734 9.66287 7.452C8.35935 7.5832 7.12609 7.7971 5.98833 8.09069C5.84129 7.44215 5.74055 6.82441 5.68959 6.2503L4.81892 6.32751C4.87439 6.95347 4.98463 7.6249 5.14579 8.32783C1.87058 9.33192 0.00195312 10.9056 0.00195312 12.6787C0.00195312 14.4514 1.87043 16.0249 5.14554 17.029C4.37754 20.3668 4.80589 22.7717 6.3413 23.6588C6.73816 23.8878 7.19182 24.0019 7.69129 24.0019C8.30685 24.0019 8.99175 23.8284 9.72468 23.4826L9.3517 22.6921C8.6147 23.0399 7.57005 23.3586 6.77837 22.9019C5.63838 22.2432 5.34598 20.1033 5.98833 17.2664C7.12609 17.56 8.3594 17.7739 9.66292 17.9051C10.4302 18.9713 11.2328 19.9324 12.0543 20.7687C11.7073 21.0901 11.3598 21.3851 11.0172 21.6481C10.9993 21.6619 10.9825 21.677 10.967 21.6934L10.9664 21.6939L11.2851 21.9968L11.5497 22.3414C11.9243 22.0537 12.3037 21.7307 12.681 21.3794C14.53 23.1014 16.2647 24.0058 17.6641 24.0057C18.1618 24.0056 18.6173 23.8913 19.0203 23.6587C20.556 22.7718 20.9844 20.367 20.216 17.0296C21.1639 16.7386 22.0056 16.3947 22.7225 16.0051L22.3052 15.2371C21.6494 15.5934 20.8756 15.9101 20.0006 16.1811C19.687 15.0512 19.2561 13.876 18.7168 12.6788C19.2561 11.481 19.6869 10.3058 20.0004 9.17651C22.7784 10.0389 24.4853 11.3623 24.4853 12.6788C24.4853 13.1554 24.2688 13.6331 23.8421 14.0985L24.4863 14.6893C25.0656 14.0576 25.3594 13.3812 25.3594 12.6788C25.3594 10.9057 23.4909 9.33197 20.2159 8.32787ZM18.5831 2.45516C19.7235 3.11381 20.0159 5.25369 19.3732 8.09059C18.2362 7.79705 17.003 7.5832 15.6991 7.45195C14.9346 6.38858 14.1324 5.42772 13.3082 4.5884C15.4437 2.61384 17.443 1.79721 18.5831 2.45516ZM12.681 20.1591C12.0472 19.5143 11.4243 18.791 10.8201 17.9988C11.4349 18.0361 12.0575 18.0553 12.681 18.0553C13.3043 18.0553 13.927 18.0361 14.542 17.9988C13.9388 18.79 13.3158 19.5133 12.681 20.1591ZM12.681 5.19733C13.3167 5.84429 13.9398 6.56781 14.5424 7.3583C13.3116 7.28411 12.0497 7.28411 10.8199 7.35825C11.4233 6.56687 12.0463 5.84344 12.681 5.19733ZM15.2178 17.0728C13.5548 17.2158 11.8051 17.2157 10.144 17.0729C9.66832 16.3917 9.2105 15.6719 8.78185 14.9297C8.35697 14.1948 7.96264 13.4384 7.60719 12.6787C7.96224 11.9198 8.35662 11.1632 8.78195 10.427C9.21209 9.68217 9.66991 8.9625 10.1439 8.28414C11.8051 8.14126 13.5548 8.14111 15.2179 8.28414C15.6912 8.96146 16.1492 9.68108 16.5803 10.4269C17.0083 11.1686 17.4026 11.9252 17.7547 12.6788C17.4021 13.4332 17.008 14.1895 16.5805 14.9298C16.1509 15.6731 15.6928 16.3927 15.2178 17.0728ZM8.02509 9.98977C7.71407 10.5281 7.41919 11.0773 7.14313 11.6304C6.7594 10.7111 6.44422 9.80985 6.20213 8.93819C7.07934 8.71155 8.01742 8.53415 9.00348 8.40707C8.66581 8.91808 8.3382 9.44751 8.02509 9.98977ZM7.14303 13.7269C7.41934 14.2804 7.71417 14.8294 8.02499 15.367C8.33736 15.908 8.66507 16.4375 9.00373 16.9499C8.01752 16.8228 7.07944 16.6453 6.20213 16.4187C6.44432 15.5468 6.7594 14.6457 7.14303 13.7269ZM17.3375 15.367C17.6496 14.8267 17.9442 14.2779 18.219 13.7273C18.6027 14.6464 18.9177 15.5474 19.1594 16.4187C18.2826 16.6453 17.3446 16.8228 16.3582 16.9499C16.6965 16.438 17.0243 15.9086 17.3375 15.367ZM17.3374 9.98968C17.0236 9.44692 16.6958 8.91753 16.3584 8.40707C17.3448 8.5342 18.2827 8.71165 19.1594 8.93819C18.9178 9.80935 18.6028 10.7105 18.219 11.6301C17.9444 11.0799 17.6497 10.5308 17.3374 9.98968ZM0.87609 12.6787C0.87609 11.3622 2.58306 10.0389 5.36113 9.17641C5.67523 10.3064 6.10605 11.4816 6.64525 12.6787C6.1062 13.8751 5.67537 15.0501 5.36108 16.1805C2.58296 15.3181 0.87609 13.995 0.87609 12.6787ZM18.5832 22.9016C17.4428 23.5598 15.4437 22.743 13.3082 20.7681C14.131 19.9304 14.9334 18.9697 15.6991 17.905C17.003 17.7738 18.2361 17.5598 19.3732 17.2664C20.0159 20.1031 19.7235 22.2431 18.5832 22.9016Z" fill="#C13D23"/>
<path d="M24.4145 14.1721C24.6263 14.4124 24.7545 14.7284 24.7545 15.0738C24.7545 15.8296 24.1418 16.4423 23.386 16.4423C22.8969 16.4423 22.4673 16.1858 22.2262 15.7994C22.0933 15.5892 22.0176 15.3405 22.0176 15.0738C22.0176 14.3181 22.6304 13.7053 23.3861 13.7053C23.7964 13.7053 24.1642 13.8861 24.4145 14.1721Z" fill="#F3F3F3" fill-opacity="0.89"/>
<path d="M11.481 21.7092C11.6927 21.9495 11.8209 22.2655 11.8209 22.6109C11.8209 23.3667 11.2082 23.9794 10.4524 23.9794C9.96332 23.9794 9.53368 23.7229 9.29259 23.3365C9.15966 23.1264 9.08398 22.8776 9.08398 22.6109C9.08398 21.8552 9.69677 21.2424 10.4525 21.2424C10.8628 21.2424 11.2306 21.4232 11.481 21.7092Z" fill="#F3F3F3" fill-opacity="0.89"/>
<path d="M6.19384 4.38226C6.40557 4.62261 6.53384 4.93864 6.53384 5.28403C6.53384 6.03975 5.92105 6.65254 5.16533 6.65254C4.67621 6.65254 4.24657 6.396 4.00548 6.00964C3.87255 5.79945 3.79688 5.55068 3.79688 5.28403C3.79688 4.52831 4.40966 3.91553 5.16538 3.91553C5.57571 3.91553 5.94349 4.09635 6.19384 4.38226Z" fill="#F3F3F3" fill-opacity="0.89"/>
</g>
<defs>
<clipPath id="clip0_402_499">
<rect width="25.3575" height="25.3575" fill="white"/>
</clipPath>
</defs>
</svg>
