<svg width="26" height="26" viewBox="0 0 26 26" fill="none" xmlns="http://www.w3.org/2000/svg">
<g clip-path="url(#clip0_402_567)">
<path d="M20.2159 8.328C20.9845 4.99028 20.556 2.58529 19.0201 1.69828C17.4847 0.812252 15.1877 1.6436 12.681 3.97762C10.1746 1.64315 7.8776 0.811757 6.3411 1.69842C5.57548 2.14054 5.06754 2.99145 4.87221 4.15923L5.73441 4.30345C5.8874 3.3888 6.23859 2.7671 6.77817 2.45548C7.91881 1.79698 9.91843 2.61362 12.0538 4.58857C11.231 5.42656 10.4288 6.38746 9.66287 7.45213C8.35935 7.58332 7.12609 7.79722 5.98833 8.09082C5.84129 7.44227 5.74055 6.82453 5.68959 6.25042L4.81892 6.32763C4.87439 6.9536 4.98463 7.62502 5.14579 8.32795C1.87058 9.33204 0.00195312 10.9057 0.00195312 12.6789C0.00195312 14.4516 1.87043 16.0251 5.14554 17.0291C4.37754 20.3669 4.80589 22.7719 6.3413 23.6589C6.73816 23.8879 7.19182 24.002 7.69129 24.002C8.30685 24.002 8.99175 23.8285 9.72468 23.4828L9.3517 22.6923C8.6147 23.04 7.57005 23.3587 6.77837 22.902C5.63838 22.2434 5.34598 20.1034 5.98833 17.2665C7.12609 17.5602 8.3594 17.774 9.66292 17.9053C10.4302 18.9715 11.2328 19.9325 12.0543 20.7689C11.7073 21.0902 11.3598 21.3852 11.0172 21.6483C10.9993 21.662 10.9825 21.6771 10.967 21.6935L10.9664 21.6941L11.2851 21.997L11.5497 22.3415C11.9243 22.0538 12.3037 21.7308 12.681 21.3795C14.53 23.1015 16.2647 24.0059 17.6641 24.0058C18.1618 24.0058 18.6173 23.8914 19.0203 23.6589C20.556 22.772 20.9844 20.3671 20.216 17.0297C21.1639 16.7387 22.0056 16.3948 22.7225 16.0052L22.3052 15.2372C21.6494 15.5935 20.8756 15.9102 20.0006 16.1812C19.687 15.0514 19.2561 13.8761 18.7168 12.6789C19.2561 11.4811 19.6869 10.3059 20.0004 9.17663C22.7784 10.039 24.4853 11.3624 24.4853 12.6789C24.4853 13.1556 24.2688 13.6332 23.8421 14.0986L24.4863 14.6894C25.0656 14.0577 25.3594 13.3813 25.3594 12.6789C25.3594 10.9058 23.4909 9.33209 20.2159 8.328ZM18.5831 2.45528C19.7235 3.11393 20.0159 5.25381 19.3732 8.09072C18.2362 7.79718 17.003 7.58332 15.6991 7.45208C14.9346 6.3887 14.1324 5.42784 13.3082 4.58852C15.4437 2.61396 17.443 1.79733 18.5831 2.45528ZM12.681 20.1593C12.0472 19.5144 11.4243 18.7911 10.8201 17.999C11.4349 18.0362 12.0575 18.0554 12.681 18.0554C13.3043 18.0554 13.927 18.0362 14.542 17.999C13.9388 18.7902 13.3158 19.5134 12.681 20.1593ZM12.681 5.19745C13.3167 5.84441 13.9398 6.56794 14.5424 7.35842C13.3116 7.28423 12.0497 7.28423 10.8199 7.35837C11.4233 6.56699 12.0463 5.84357 12.681 5.19745ZM15.2178 17.0729C13.5548 17.216 11.8051 17.2159 10.144 17.073C9.66832 16.3918 9.2105 15.672 8.78185 14.9298C8.35697 14.195 7.96264 13.4385 7.60719 12.6789C7.96224 11.9199 8.35662 11.1634 8.78195 10.4272C9.21209 9.68229 9.66991 8.96263 10.1439 8.28427C11.8051 8.14138 13.5548 8.14123 15.2179 8.28427C15.6912 8.96159 16.1492 9.6812 16.5803 10.4271C17.0083 11.1687 17.4026 11.9253 17.7547 12.6789C17.4021 13.4333 17.008 14.1897 16.5805 14.9299C16.1509 15.6732 15.6928 16.3928 15.2178 17.0729ZM8.02509 9.9899C7.71407 10.5282 7.41919 11.0774 7.14313 11.6305C6.7594 10.7112 6.44422 9.80997 6.20213 8.93831C7.07934 8.71168 8.01742 8.53427 9.00348 8.40719C8.66581 8.9182 8.3382 9.44763 8.02509 9.9899ZM7.14303 13.727C7.41934 14.2805 7.71417 14.8295 8.02499 15.3672C8.33736 15.9081 8.66507 16.4376 9.00373 16.95C8.01752 16.8229 7.07944 16.6455 6.20213 16.4188C6.44432 15.5469 6.7594 14.6458 7.14303 13.727ZM17.3375 15.3672C17.6496 14.8268 17.9442 14.278 18.219 13.7274C18.6027 14.6465 18.9177 15.5475 19.1594 16.4188C18.2826 16.6454 17.3446 16.8229 16.3582 16.95C16.6965 16.4382 17.0243 15.9088 17.3375 15.3672ZM17.3374 9.9898C17.0236 9.44704 16.6958 8.91765 16.3584 8.40719C17.3448 8.53432 18.2827 8.71177 19.1594 8.93831C18.9178 9.80947 18.6028 10.7106 18.219 11.6302C17.9444 11.08 17.6497 10.531 17.3374 9.9898ZM0.87609 12.6789C0.87609 11.3624 2.58306 10.039 5.36113 9.17653C5.67523 10.3066 6.10605 11.4817 6.64525 12.6788C6.1062 13.8752 5.67537 15.0502 5.36108 16.1806C2.58296 15.3182 0.87609 13.9951 0.87609 12.6789ZM18.5832 22.9018C17.4428 23.56 15.4437 22.7431 13.3082 20.7682C14.131 19.9305 14.9334 18.9698 15.6991 17.9051C17.003 17.7739 18.2361 17.56 19.3732 17.2665C20.0159 20.1032 19.7235 22.2433 18.5832 22.9018Z" fill="#C13D23"/>
<path d="M24.4145 14.1722C24.6263 14.4125 24.7545 14.7286 24.7545 15.074C24.7545 15.8297 24.1418 16.4425 23.386 16.4425C22.8969 16.4425 22.4673 16.1859 22.2262 15.7996C22.0933 15.5894 22.0176 15.3406 22.0176 15.074C22.0176 14.3182 22.6304 13.7054 23.3861 13.7054C23.7964 13.7054 24.1642 13.8863 24.4145 14.1722Z" fill="#F3F3F3" fill-opacity="0.89"/>
<path d="M11.481 21.7092C11.6927 21.9495 11.8209 22.2655 11.8209 22.6109C11.8209 23.3667 11.2082 23.9794 10.4524 23.9794C9.96332 23.9794 9.53368 23.7229 9.29259 23.3365C9.15966 23.1264 9.08398 22.8776 9.08398 22.6109C9.08398 21.8552 9.69677 21.2424 10.4525 21.2424C10.8628 21.2424 11.2306 21.4232 11.481 21.7092Z" fill="#F3F3F3" fill-opacity="0.89"/>
<path d="M6.19384 4.38238C6.40557 4.62273 6.53384 4.93876 6.53384 5.28416C6.53384 6.03988 5.92105 6.65266 5.16533 6.65266C4.67621 6.65266 4.24657 6.39612 4.00548 6.00976C3.87255 5.79958 3.79688 5.55081 3.79688 5.28416C3.79688 4.52844 4.40966 3.91565 5.16538 3.91565C5.57571 3.91565 5.94349 4.09647 6.19384 4.38238Z" fill="#F3F3F3" fill-opacity="0.89"/>
</g>
<defs>
<clipPath id="clip0_402_567">
<rect width="25.3575" height="25.3575" fill="white"/>
</clipPath>
</defs>
</svg>
