<svg width="48" height="48" viewBox="0 0 48 48" fill="none" xmlns="http://www.w3.org/2000/svg">
<rect width="47.0448" height="47.0448" rx="23.5224" fill="#C0C0C0"/>
<path d="M19.2168 35.9307C29.649 35.9307 35.3532 27.2862 35.3532 19.7943C35.3532 19.5473 35.3532 19.3004 35.3414 19.0651C36.447 18.2654 37.4114 17.2657 38.1759 16.1248C37.1644 16.5718 36.0706 16.8775 34.918 17.0187C36.0942 16.313 36.988 15.2075 37.4114 13.8784C36.3176 14.5253 35.1062 14.9958 33.8125 15.2545C32.7775 14.1489 31.3073 13.4668 29.6725 13.4668C26.5441 13.4668 24.0036 16.0072 24.0036 19.1357C24.0036 19.5826 24.0507 20.0178 24.1565 20.4294C19.4403 20.1942 15.2651 17.9361 12.4659 14.5018C11.9837 15.3368 11.7014 16.313 11.7014 17.348C11.7014 19.3121 12.7011 21.0528 14.2301 22.0642C13.3009 22.0407 12.4306 21.782 11.6661 21.3586C11.6661 21.3821 11.6661 21.4056 11.6661 21.4291C11.6661 24.1813 13.6185 26.4629 16.2177 26.9922C15.7473 27.1216 15.2415 27.1921 14.7241 27.1921C14.3595 27.1921 14.0066 27.1568 13.6538 27.0863C14.3712 29.3444 16.4647 30.9792 18.9463 31.0263C17.0057 32.5435 14.5594 33.4491 11.9014 33.4491C11.4427 33.4491 10.9958 33.4256 10.5488 33.3668C13.0304 34.9898 16.0178 35.9307 19.2168 35.9307Z" fill="#121212"/>
</svg>
