<svg width="640" height="420" viewBox="0 0 640 420" fill="none" xmlns="http://www.w3.org/2000/svg">
  <rect width="640" height="420" rx="28" fill="#05051D"/>
  <rect x="36" y="36" width="568" height="348" rx="24" fill="url(#paint0_linear)" opacity="0.5"/>
  <circle cx="320" cy="210" r="148" stroke="url(#paint1_radial)" stroke-width="2"/>
  <circle cx="320" cy="210" r="104" stroke="url(#paint2_radial)" stroke-width="2" opacity="0.7"/>
  <circle cx="320" cy="210" r="64" stroke="#5B5AF5" stroke-width="2" opacity="0.8"/>
  <path d="M180 210C180 284.394 239.606 344 314 344C388.394 344 448 284.394 448 210C448 135.606 388.394 76 314 76" stroke="url(#paint3_linear)" stroke-width="2" stroke-dasharray="8 12" opacity="0.8"/>
  <circle cx="426" cy="140" r="8" fill="#7C3AED"/>
  <circle cx="224" cy="104" r="6" fill="#38BDF8"/>
  <circle cx="466" cy="260" r="6" fill="#22D3EE"/>
  <circle cx="210" cy="298" r="6" fill="#818CF8"/>
  <defs>
    <linearGradient id="paint0_linear" x1="36" y1="36" x2="604" y2="384" gradientUnits="userSpaceOnUse">
      <stop stop-color="#312E81"/>
      <stop offset="1" stop-color="#1E1B4B" stop-opacity="0"/>
    </linearGradient>
    <radialGradient id="paint1_radial" cx="0" cy="0" r="1" gradientUnits="userSpaceOnUse" gradientTransform="translate(320 210) rotate(90) scale(148)">
      <stop stop-color="#6366F1"/>
      <stop offset="1" stop-color="#312E81" stop-opacity="0"/>
    </radialGradient>
    <radialGradient id="paint2_radial" cx="0" cy="0" r="1" gradientUnits="userSpaceOnUse" gradientTransform="translate(320 210) rotate(90) scale(104)">
      <stop stop-color="#22D3EE"/>
      <stop offset="1" stop-color="#22D3EE" stop-opacity="0"/>
    </radialGradient>
    <linearGradient id="paint3_linear" x1="180" y1="76" x2="448" y2="344" gradientUnits="userSpaceOnUse">
      <stop stop-color="#38BDF8"/>
      <stop offset="1" stop-color="#7C3AED"/>
    </linearGradient>
  </defs>
</svg>

