<svg width="180" height="60" viewBox="0 0 180 60" fill="none" xmlns="http://www.w3.org/2000/svg">
  <rect width="180" height="60" rx="14" fill="url(#paint0_linear)"/>
  <path d="M38 30C38 23.3726 43.3726 18 50 18H60V24H50C46.6863 24 44 26.6863 44 30C44 33.3137 46.6863 36 50 36H60V42H50C43.3726 42 38 36.6274 38 30Z" fill="white" fill-opacity="0.85"/>
  <path d="M70 18H76L88 33V18H94V42H88L76 27V42H70V18Z" fill="white" fill-opacity="0.85"/>
  <path d="M108 18H114L122 30L130 18H136V42H130V27L122 38L114 27V42H108V18Z" fill="white" fill-opacity="0.85"/>
  <path d="M148 18H168V24H160V42H154V24H148V18Z" fill="white" fill-opacity="0.85"/>
  <path d="M50 20C57 20 62 28 69 28C76 28 81 20 88 20C95 20 100 28 107 28C114 28 119 20 126 20" stroke="#38BDF8" stroke-width="2" stroke-linecap="round" stroke-dasharray="8 8" opacity="0.7"/>
  <defs>
    <linearGradient id="paint0_linear" x1="0" y1="0" x2="180" y2="60" gradientUnits="userSpaceOnUse">
      <stop stop-color="#0F172A"/>
      <stop offset="1" stop-color="#312E81"/>
    </linearGradient>
  </defs>
</svg>

