<svg width="180" height="60" viewBox="0 0 180 60" fill="none" xmlns="http://www.w3.org/2000/svg">
  <rect width="180" height="60" rx="14" fill="url(#paint0_linear)"/>
  <path d="M36 42L54 18L72 42H62L54 30L46 42H36Z" fill="white" fill-opacity="0.8"/>
  <path d="M86 18H92L102 42H94.8L93 37.2H85L83.2 42H76L86 18ZM89 24.8L87 30H91L89 24.8Z" fill="white" fill-opacity="0.85"/>
  <path d="M110 18H130V24H122V42H118V24H110V18Z" fill="white" fill-opacity="0.85"/>
  <path d="M138 18H144L154 42H146.8L145 37.2H137L135.2 42H128L138 18Z" fill="white" fill-opacity="0.85"/>
  <defs>
    <linearGradient id="paint0_linear" x1="0" y1="0" x2="180" y2="60" gradientUnits="userSpaceOnUse">
      <stop stop-color="#0F172A"/>
      <stop offset="1" stop-color="#1E293B"/>
    </linearGradient>
  </defs>
</svg>

