<svg width="540" height="360" viewBox="0 0 540 360" fill="none" xmlns="http://www.w3.org/2000/svg">
  <rect width="540" height="360" rx="24" fill="#05051D"/>
  <rect x="28" y="28" width="484" height="304" rx="20" fill="url(#paint0_linear)" opacity="0.6"/>
  <path d="M94 266C94 226.578 126.578 194 166 194H374C413.422 194 446 226.578 446 266V332H94V266Z" fill="url(#paint1_linear)" opacity="0.8"/>
  <circle cx="176" cy="164" r="48" fill="#312E81"/>
  <circle cx="176" cy="164" r="32" fill="#4338CA" opacity="0.8"/>
  <circle cx="176" cy="164" r="12" fill="#A855F7" opacity="0.9"/>
  <circle cx="270" cy="152" r="40" fill="#1E293B"/>
  <circle cx="270" cy="152" r="22" fill="#0EA5E9" opacity="0.8"/>
  <circle cx="360" cy="170" r="44" fill="#1E293B"/>
  <circle cx="360" cy="170" r="20" fill="#34D399" opacity="0.8"/>
  <path d="M118 232L168 212L202 236L150 260L118 232Z" fill="#1E1B4B"/>
  <path d="M202 236L248 202L296 236L244 268L202 236Z" fill="#111827"/>
  <path d="M296 236L338 208L386 238L338 270L296 236Z" fill="#0F172A"/>
  <path d="M338 128C338 111.431 351.431 98 368 98H428C444.569 98 458 111.431 458 128V144C458 160.569 444.569 174 428 174H368C351.431 174 338 160.569 338 144V128Z" fill="url(#paint2_linear)" opacity="0.6"/>
  <circle cx="96" cy="96" r="12" fill="#38BDF8"/>
  <circle cx="126" cy="118" r="8" fill="#22D3EE"/>
  <circle cx="418" cy="86" r="10" fill="#6366F1"/>
  <defs>
    <linearGradient id="paint0_linear" x1="28" y1="28" x2="512" y2="332" gradientUnits="userSpaceOnUse">
      <stop stop-color="#312E81"/>
      <stop offset="1" stop-color="#0B1120"/>
    </linearGradient>
    <linearGradient id="paint1_linear" x1="94" y1="194" x2="446" y2="332" gradientUnits="userSpaceOnUse">
      <stop stop-color="#111827"/>
      <stop offset="1" stop-color="#1F2937"/>
    </linearGradient>
    <linearGradient id="paint2_linear" x1="338" y1="98" x2="458" y2="174" gradientUnits="userSpaceOnUse">
      <stop stop-color="#1E40AF"/>
      <stop offset="1" stop-color="#0EA5E9"/>
    </linearGradient>
  </defs>
</svg>

