<?xml version="1.0" encoding="UTF-8"?>
<svg version="1.1" xmlns="http://www.w3.org/2000/svg" width="225" height="225">
<path d="M0 0 C74.25 0 148.5 0 225 0 C225 74.25 225 148.5 225 225 C150.75 225 76.5 225 0 225 C0 150.75 0 76.5 0 0 Z " fill="#FEFEFE" transform="translate(0,0)"/>
<path d="M0 0 C31.37377759 -3.13689516 31.37377759 -3.13689516 39.88476562 1.60839844 C44.41586011 5.94916239 46.95499795 11.36174899 49.52929688 17.01269531 C52.16646526 22.36933414 55.69968043 27.1256635 59.125 32 C60.88170196 34.61369555 62.63784721 37.2277484 64.39111328 39.84375 C66.08825673 42.11828277 67.94912369 44.04307818 70 46 C76.15420526 39.40867362 82.09671519 32.74347506 87.75390625 25.71484375 C90.86934959 21.94922093 94.1864165 18.38361025 97.49609375 14.7890625 C100.89481329 11.0032813 104.0924253 7.07864278 107.28515625 3.1171875 C109 1 109 1 110 0 C111.68608966 -0.07205511 113.37500659 -0.08386068 115.0625 -0.0625 C115.98160156 -0.05347656 116.90070313 -0.04445312 117.84765625 -0.03515625 C118.55792969 -0.02355469 119.26820313 -0.01195312 120 0 C118.49993609 3.44779086 116.49590738 5.82360533 113.9375 8.5625 C110.66981527 12.12296928 107.53520807 15.7393292 104.5 19.5 C101.5918662 23.0947765 98.61458668 26.58260628 95.5 30 C91.55310182 34.33196142 87.8386551 38.81665284 84.15234375 43.37109375 C81.18794006 46.99186268 78.10613101 50.5010298 75 54 C79.60799338 61.33065817 84.35152327 68.5480666 89.25 75.6875 C89.90258789 76.64156738 90.55517578 77.59563477 91.22753906 78.57861328 C93.14957592 81.38720024 95.07422587 84.19397463 97 87 C97.52207031 87.76103027 98.04414063 88.52206055 98.58203125 89.30615234 C102.19460507 94.57043192 105.81481311 99.82943851 109.43798828 105.08642578 C125 127.66811774 125 127.66811774 125 129 C93.51734695 131.97551668 93.51734695 131.97551668 85.22949219 127.50585938 C80.95924957 123.42774668 78.74214205 118.27148376 76.41552734 112.92333984 C73.76506756 107.44962384 70.05165632 102.66606282 66.5 97.75 C65.17376531 95.85127162 63.8506768 93.95034048 62.53125 92.046875 C59.71455249 88.01141415 56.87084367 83.99709773 54 80 C48.96591903 83.74329097 45.32817853 88.14962888 41.421875 93.0390625 C39.03684093 95.95495899 36.55411384 98.73172134 34 101.5 C30.70668301 105.07792463 27.55348679 108.71539666 24.5 112.5 C23.76652344 113.39332031 23.03304687 114.28664063 22.27734375 115.20703125 C20.68206799 117.16350152 19.11383976 119.1421937 17.56640625 121.13671875 C11.38669708 128.66613039 11.38669708 128.66613039 7.14453125 129.6875 C4.66034364 129.6875 2.42721258 129.51126393 0 129 C5.30363151 121.57491589 11.306193 114.80633977 17.30517578 107.94482422 C20.40448316 104.38834445 23.46879303 100.80198115 26.53393555 97.21606445 C29.09400909 94.22174951 31.66100483 91.23396395 34.2421875 88.2578125 C34.77706787 87.63914307 35.31194824 87.02047363 35.86303711 86.38305664 C36.87448911 85.21351136 37.88814149 84.04586341 38.90454102 82.88061523 C42.18822791 79.07619761 45.12711156 75.1242373 48 71 C37.80068061 56.01797371 37.80068061 56.01797371 27.5625 41.0625 C27.14162109 40.44938965 26.72074219 39.8362793 26.28710938 39.20458984 C23.53645168 35.20722389 20.76149818 31.22747065 17.9765625 27.25390625 C17.26814209 26.24126709 16.55972168 25.22862793 15.82983398 24.18530273 C14.44164817 22.20229314 13.05070545 20.22120948 11.65649414 18.24243164 C7.50254527 12.30607238 3.63614559 6.26721931 0 0 Z " fill="#050505" transform="translate(50,48)"/>
<path d="M0 0 C5.66142317 -0.8866498 11.4242442 -1.70471452 17 0 C21.21443498 3.18000601 23.42959076 8.25400096 25.81982422 12.84033203 C27.75962214 16.39007394 30.10347688 19.63933511 32.4375 22.9375 C33.36488895 24.27883779 34.29066483 25.62129224 35.21484375 26.96484375 C35.67487793 27.63112793 36.13491211 28.29741211 36.60888672 28.98388672 C38.91044193 32.31948569 41.20482633 35.66000847 43.5 39 C44.42316316 40.34245749 45.34634022 41.68490542 46.26953125 43.02734375 C48.03950133 45.60167457 49.80767685 48.17722191 51.57421875 50.75390625 C56.26222894 57.58808539 60.97385415 64.40495383 65.71362305 71.20336914 C69.14845481 76.13139116 72.57605388 81.06440961 76 86 C76.70930664 87.02222656 77.41861328 88.04445313 78.14941406 89.09765625 C80.23041832 92.10281255 82.30386513 95.11303573 84.375 98.125 C85.01147461 99.04297363 85.64794922 99.96094727 86.30371094 100.90673828 C87.18591309 102.19427002 87.18591309 102.19427002 88.0859375 103.5078125 C88.6020459 104.25691895 89.1181543 105.00602539 89.64990234 105.77783203 C91.06856695 108.11285649 92.05659548 110.44013519 93 113 C87.63147847 113.90934806 82.2981076 114.60552586 77 113 C72.80906918 109.39601892 70.27804031 105.17187348 67.48388672 100.44384766 C65.28592641 96.82397555 62.86404665 93.368816 60.4543457 89.88769531 C58.49864599 87.06054265 56.56654624 84.21859888 54.640625 81.37109375 C51.52912801 76.77603889 48.39791611 72.19516392 45.25 67.625 C44.80809326 66.98320801 44.36618652 66.34141602 43.91088867 65.68017578 C43.03687393 64.41090802 42.1627705 63.14170133 41.28857422 61.87255859 C40.00426266 60.0061945 38.72244649 58.13814195 37.44140625 56.26953125 C32.71394282 49.37671598 27.96220095 42.50154948 23.18432617 35.64355469 C20.45642784 31.72779974 17.731952 27.8096743 15.00878906 23.890625 C13.67824228 21.97598306 12.34687272 20.06191261 11.01464844 18.1484375 C9.17156193 15.49812577 7.33485831 12.84351246 5.5 10.1875 C4.94199707 9.38723389 4.38399414 8.58696777 3.80908203 7.76245117 C3.30489746 7.03002197 2.80071289 6.29759277 2.28125 5.54296875 C1.83845703 4.90383545 1.39566406 4.26470215 0.93945312 3.60620117 C0 2 0 2 0 0 Z " fill="#F9F9F9" transform="translate(66,56)"/>
</svg>
