<svg width="48" height="48" viewBox="0 0 48 48" fill="none" xmlns="http://www.w3.org/2000/svg">
<rect width="47.0448" height="47.0448" rx="23.5224" fill="#C0C0C0"/>
<path d="M23.5255 11.9529C27.2967 11.9529 27.7393 11.9698 29.2299 12.037C30.6083 12.0986 31.3536 12.3284 31.8523 12.5245C32.5136 12.7823 32.9842 13.0849 33.4774 13.578C33.9705 14.0711 34.2787 14.5418 34.5308 15.203C34.7213 15.7017 34.9567 16.447 35.0183 17.8254C35.0856 19.316 35.1024 19.7587 35.1024 23.5298C35.1024 27.301 35.0856 27.7437 35.0183 29.2342C34.9567 30.6127 34.7269 31.358 34.5308 31.8567C34.2731 32.5179 33.9705 32.9886 33.4774 33.4817C32.9842 33.9748 32.5136 34.283 31.8523 34.5352C31.3536 34.7257 30.6083 34.9611 29.2299 35.0227C27.7393 35.0899 27.2967 35.1068 23.5255 35.1068C19.7543 35.1068 19.3116 35.0899 17.8211 35.0227C16.4426 34.9611 15.6973 34.7313 15.1986 34.5352C14.5374 34.2774 14.0667 33.9748 13.5736 33.4817C13.0805 32.9886 12.7723 32.5179 12.5201 31.8567C12.3296 31.358 12.0943 30.6127 12.0326 29.2342C11.9654 27.7437 11.9486 27.301 11.9486 23.5298C11.9486 19.7587 11.9654 19.316 12.0326 17.8254C12.0943 16.447 12.324 15.7017 12.5201 15.203C12.7779 14.5418 13.0805 14.0711 13.5736 13.578C14.0667 13.0849 14.5374 12.7767 15.1986 12.5245C15.6973 12.334 16.4426 12.0986 17.8211 12.037C19.3116 11.9641 19.7599 11.9529 23.5255 11.9529ZM23.5255 9.40894C19.6927 9.40894 19.2107 9.42575 17.7034 9.49299C16.2016 9.56023 15.1762 9.80118 14.2796 10.1486C13.3494 10.5072 12.5649 10.9947 11.7805 11.7792C10.996 12.5637 10.5141 13.3538 10.1498 14.2784C9.8024 15.175 9.56145 16.2004 9.49421 17.7078C9.42697 19.2095 9.41016 19.6914 9.41016 23.5242C9.41016 27.3571 9.42697 27.839 9.49421 29.3463C9.56145 30.8481 9.8024 31.8735 10.1498 32.7757C10.5085 33.7059 10.996 34.4904 11.7805 35.2749C12.5649 36.0594 13.355 36.5413 14.2796 36.9055C15.1762 37.2529 16.2016 37.4939 17.709 37.5611C19.2164 37.6283 19.6927 37.6452 23.5311 37.6452C27.3695 37.6452 27.8458 37.6283 29.3532 37.5611C30.8549 37.4939 31.8804 37.2529 32.7825 36.9055C33.7127 36.5469 34.4972 36.0594 35.2817 35.2749C36.0662 34.4904 36.5481 33.7003 36.9123 32.7757C37.2598 31.8791 37.5007 30.8537 37.5679 29.3463C37.6352 27.839 37.652 27.3627 37.652 23.5242C37.652 19.6858 37.6352 19.2095 37.5679 17.7022C37.5007 16.2004 37.2598 15.175 36.9123 14.2728C36.5537 13.3426 36.0662 12.5581 35.2817 11.7736C34.4972 10.9891 33.7071 10.5072 32.7825 10.143C31.886 9.79558 30.8605 9.55463 29.3532 9.48739C27.8402 9.42575 27.3583 9.40894 23.5255 9.40894Z" fill="#121212"/>
<path d="M23.5255 11.9529C27.2967 11.9529 27.7393 11.9698 29.2299 12.037C30.6083 12.0986 31.3536 12.3284 31.8523 12.5245C32.5136 12.7823 32.9842 13.0849 33.4774 13.578C33.9705 14.0711 34.2787 14.5418 34.5308 15.203C34.7213 15.7017 34.9567 16.447 35.0183 17.8254C35.0856 19.316 35.1024 19.7587 35.1024 23.5298C35.1024 27.301 35.0856 27.7437 35.0183 29.2342C34.9567 30.6127 34.7269 31.358 34.5308 31.8567C34.2731 32.5179 33.9705 32.9886 33.4774 33.4817C32.9842 33.9748 32.5136 34.283 31.8523 34.5352C31.3536 34.7257 30.6083 34.9611 29.2299 35.0227C27.7393 35.0899 27.2967 35.1068 23.5255 35.1068C19.7543 35.1068 19.3116 35.0899 17.8211 35.0227C16.4426 34.9611 15.6973 34.7313 15.1986 34.5352C14.5374 34.2774 14.0667 33.9748 13.5736 33.4817C13.0805 32.9886 12.7723 32.5179 12.5201 31.8567C12.3296 31.358 12.0943 30.6127 12.0326 29.2342C11.9654 27.7437 11.9486 27.301 11.9486 23.5298C11.9486 19.7587 11.9654 19.316 12.0326 17.8254C12.0943 16.447 12.324 15.7017 12.5201 15.203C12.7779 14.5418 13.0805 14.0711 13.5736 13.578C14.0667 13.0849 14.5374 12.7767 15.1986 12.5245C15.6973 12.334 16.4426 12.0986 17.8211 12.037C19.3116 11.9641 19.7599 11.9529 23.5255 11.9529Z" fill="#121212"/>
<path d="M23.5264 16.2788C19.5254 16.2788 16.2754 19.5233 16.2754 23.5298C16.2754 27.5363 19.5198 30.7808 23.5264 30.7808C27.5329 30.7808 30.7773 27.5363 30.7773 23.5298C30.7773 19.5233 27.5329 16.2788 23.5264 16.2788ZM23.5264 28.2311C20.9263 28.2311 18.8194 26.1242 18.8194 23.5242C18.8194 20.9241 20.9263 18.8172 23.5264 18.8172C26.1264 18.8172 28.2333 20.9241 28.2333 23.5242C28.2333 26.1242 26.1264 28.2311 23.5264 28.2311Z" fill="#C0C0C0"/>
<path d="M31.0634 17.6797C31.998 17.6797 32.7556 16.922 32.7556 15.9874C32.7556 15.0528 31.998 14.2952 31.0634 14.2952C30.1287 14.2952 29.3711 15.0528 29.3711 15.9874C29.3711 16.922 30.1287 17.6797 31.0634 17.6797Z" fill="#C0C0C0"/>
</svg>
