<svg width="48" height="48" viewBox="0 0 48 48" fill="none" xmlns="http://www.w3.org/2000/svg">
<rect width="47.0448" height="47.0448" rx="23.5224" fill="#C0C0C0"/>
<path d="M34.5505 10.585H12.496C11.9894 10.585 11.5036 10.7862 11.1454 11.1444C10.7872 11.5026 10.5859 11.9884 10.5859 12.495V34.5496C10.5859 35.0561 10.7872 35.542 11.1454 35.9002C11.5036 36.2584 11.9894 36.4596 12.496 36.4596H34.5505C35.0571 36.4596 35.5429 36.2584 35.9011 35.9002C36.2593 35.542 36.4606 35.0561 36.4606 34.5496V12.495C36.4606 11.9884 36.2593 11.5026 35.9011 11.1444C35.5429 10.7862 35.0571 10.585 34.5505 10.585ZM18.298 32.6269H14.4078V20.27H18.298V32.6269ZM16.3502 18.5576C15.909 18.5551 15.4783 18.422 15.1126 18.175C14.747 17.9279 14.4626 17.5782 14.2956 17.1697C14.1285 16.7613 14.0862 16.3125 14.1739 15.88C14.2617 15.4476 14.4755 15.0508 14.7886 14.7398C15.1016 14.4287 15.4998 14.2174 15.9328 14.1324C16.3658 14.0475 16.8143 14.0927 17.2217 14.2624C17.629 14.4321 17.977 14.7186 18.2216 15.0859C18.4663 15.4531 18.5966 15.8846 18.5963 16.3259C18.6005 16.6213 18.5451 16.9146 18.4335 17.1882C18.3219 17.4618 18.1564 17.7101 17.9468 17.9183C17.7372 18.1266 17.4878 18.2905 17.2135 18.4003C16.9392 18.5102 16.6456 18.5636 16.3502 18.5576ZM32.6369 32.6377H28.7485V25.8869C28.7485 23.896 27.9022 23.2815 26.8097 23.2815C25.6561 23.2815 24.5241 24.1512 24.5241 25.9372V32.6377H20.6339V20.279H24.375V21.9914H24.4253C24.8008 21.2313 26.1161 19.9322 28.1232 19.9322C30.2938 19.9322 32.6387 21.2205 32.6387 24.9939L32.6369 32.6377Z" fill="#121212"/>
</svg>
