<svg width="48" height="48" viewBox="0 0 48 48" fill="none" xmlns="http://www.w3.org/2000/svg">
<rect width="47.0448" height="47.0448" rx="23.5224" fill="#C0C0C0"/>
<path d="M19.2168 35.9304C29.649 35.9304 35.3532 27.286 35.3532 19.7941C35.3532 19.5471 35.3532 19.3001 35.3414 19.0649C36.447 18.2651 37.4114 17.2654 38.1759 16.1246C37.1644 16.5715 36.0706 16.8773 34.918 17.0184C36.0942 16.3128 36.988 15.2072 37.4114 13.8782C36.3176 14.5251 35.1062 14.9955 33.8125 15.2543C32.7775 14.1487 31.3073 13.4666 29.6725 13.4666C26.5441 13.4666 24.0036 16.007 24.0036 19.1355C24.0036 19.5824 24.0507 20.0175 24.1565 20.4292C19.4403 20.194 15.2651 17.9358 12.4659 14.5015C11.9837 15.3366 11.7014 16.3128 11.7014 17.3477C11.7014 19.3119 12.7011 21.0525 14.2301 22.064C13.3009 22.0405 12.4306 21.7817 11.6661 21.3583C11.6661 21.3818 11.6661 21.4054 11.6661 21.4289C11.6661 24.181 13.6185 26.4627 16.2177 26.9919C15.7473 27.1213 15.2415 27.1919 14.7241 27.1919C14.3595 27.1919 14.0066 27.1566 13.6538 27.086C14.3712 29.3442 16.4647 30.979 18.9463 31.026C17.0057 32.5432 14.5594 33.4488 11.9014 33.4488C11.4427 33.4488 10.9958 33.4253 10.5488 33.3665C13.0304 34.9896 16.0178 35.9304 19.2168 35.9304Z" fill="#121212"/>
</svg>
