<svg width="640" height="420" viewBox="0 0 640 420" fill="none" xmlns="http://www.w3.org/2000/svg">
  <rect width="640" height="420" rx="28" fill="#05051D"/>
  <rect x="44" y="48" width="552" height="324" rx="24" fill="url(#paint0_linear)" opacity="0.7"/>
  <g opacity="0.9">
    <rect x="108" y="104" width="424" height="48" rx="14" fill="#1E3A8A" fill-opacity="0.6"/>
    <text x="120" y="136" fill="#E0E7FF" font-size="16" font-family="Arial" font-weight="600">Experience Layer</text>
    <text x="430" y="136" fill="#BFDBFE" font-size="14" font-family="Arial">Dashboards 路 APIs</text>
  </g>
  <g opacity="0.9">
    <rect x="108" y="168" width="424" height="48" rx="14" fill="#3730A3" fill-opacity="0.65"/>
    <text x="120" y="200" fill="#E0E7FF" font-size="16" font-family="Arial" font-weight="600">Intelligence Layer</text>
    <text x="420" y="200" fill="#C7D2FE" font-size="14" font-family="Arial">AI 路 Analytics</text>
  </g>
  <g opacity="0.9">
    <rect x="108" y="232" width="424" height="48" rx="14" fill="#312E81" fill-opacity="0.75"/>
    <text x="120" y="264" fill="#E0E7FF" font-size="16" font-family="Arial" font-weight="600">Control Layer</text>
    <text x="404" y="264" fill="#C7D2FE" font-size="14" font-family="Arial">Firmware 路 Feedback</text>
  </g>
  <g opacity="0.9">
    <rect x="108" y="296" width="424" height="48" rx="14" fill="#1E1B4B" fill-opacity="0.8"/>
    <text x="120" y="328" fill="#E0E7FF" font-size="16" font-family="Arial" font-weight="600">Hardware Layer</text>
    <text x="408" y="328" fill="#C7D2FE" font-size="14" font-family="Arial">Sensors 路 Power</text>
  </g>
  <path d="M250 128L250 320" stroke="url(#paint1_linear)" stroke-width="2" stroke-dasharray="6 8" opacity="0.5"/>
  <path d="M384 128L384 320" stroke="url(#paint2_linear)" stroke-width="2" stroke-dasharray="6 8" opacity="0.5"/>
  <circle cx="250" cy="128" r="6" fill="#38BDF8"/>
  <circle cx="384" cy="128" r="6" fill="#A855F7"/>
  <circle cx="250" cy="320" r="6" fill="#38BDF8"/>
  <circle cx="384" cy="320" r="6" fill="#A855F7"/>
  <defs>
    <linearGradient id="paint0_linear" x1="44" y1="48" x2="596" y2="372" gradientUnits="userSpaceOnUse">
      <stop stop-color="#312E81"/>
      <stop offset="1" stop-color="#0F172A"/>
    </linearGradient>
    <linearGradient id="paint1_linear" x1="250" y1="128" x2="250" y2="320" gradientUnits="userSpaceOnUse">
      <stop stop-color="#38BDF8"/>
      <stop offset="1" stop-color="#22D3EE" stop-opacity="0"/>
    </linearGradient>
    <linearGradient id="paint2_linear" x1="384" y1="128" x2="384" y2="320" gradientUnits="userSpaceOnUse">
      <stop stop-color="#A855F7"/>
      <stop offset="1" stop-color="#6366F1" stop-opacity="0"/>
    </linearGradient>
  </defs>
</svg>

