<svg width="48" height="48" viewBox="0 0 48 48" fill="none" xmlns="http://www.w3.org/2000/svg">
<rect width="47.0448" height="47.0448" rx="23.5224" fill="#C0C0C0"/>
<path d="M23.5255 11.9532C27.2967 11.9532 27.7393 11.97 29.2299 12.0372C30.6083 12.0989 31.3536 12.3286 31.8523 12.5247C32.5136 12.7825 32.9842 13.0851 33.4774 13.5782C33.9705 14.0713 34.2787 14.542 34.5308 15.2032C34.7213 15.702 34.9567 16.4472 35.0183 17.8257C35.0856 19.3162 35.1024 19.7589 35.1024 23.5301C35.1024 27.3013 35.0856 27.7439 35.0183 29.2345C34.9567 30.613 34.7269 31.3582 34.5308 31.8569C34.2731 32.5182 33.9705 32.9889 33.4774 33.482C32.9842 33.9751 32.5136 34.2833 31.8523 34.5354C31.3536 34.726 30.6083 34.9613 29.2299 35.0229C27.7393 35.0902 27.2967 35.107 23.5255 35.107C19.7543 35.107 19.3116 35.0902 17.8211 35.0229C16.4426 34.9613 15.6973 34.7316 15.1986 34.5354C14.5374 34.2777 14.0667 33.9751 13.5736 33.482C13.0805 32.9889 12.7723 32.5182 12.5201 31.8569C12.3296 31.3582 12.0943 30.613 12.0326 29.2345C11.9654 27.7439 11.9486 27.3013 11.9486 23.5301C11.9486 19.7589 11.9654 19.3162 12.0326 17.8257C12.0943 16.4472 12.324 15.702 12.5201 15.2032C12.7779 14.542 13.0805 14.0713 13.5736 13.5782C14.0667 13.0851 14.5374 12.7769 15.1986 12.5247C15.6973 12.3342 16.4426 12.0989 17.8211 12.0372C19.3116 11.9644 19.7599 11.9532 23.5255 11.9532ZM23.5255 9.40918C19.6927 9.40918 19.2107 9.42599 17.7034 9.49323C16.2016 9.56048 15.1762 9.80143 14.2796 10.1488C13.3494 10.5075 12.5649 10.995 11.7805 11.7795C10.996 12.564 10.5141 13.3541 10.1498 14.2787C9.8024 15.1752 9.56145 16.2007 9.49421 17.708C9.42697 19.2098 9.41016 19.6917 9.41016 23.5245C9.41016 27.3573 9.42697 27.8392 9.49421 29.3466C9.56145 30.8483 9.8024 31.8738 10.1498 32.7759C10.5085 33.7061 10.996 34.4906 11.7805 35.2751C12.5649 36.0596 13.355 36.5415 14.2796 36.9057C15.1762 37.2531 16.2016 37.4941 17.709 37.5613C19.2164 37.6286 19.6927 37.6454 23.5311 37.6454C27.3695 37.6454 27.8458 37.6286 29.3532 37.5613C30.8549 37.4941 31.8804 37.2531 32.7825 36.9057C33.7127 36.5471 34.4972 36.0596 35.2817 35.2751C36.0662 34.4906 36.5481 33.7005 36.9123 32.7759C37.2598 31.8794 37.5007 30.8539 37.5679 29.3466C37.6352 27.8392 37.652 27.3629 37.652 23.5245C37.652 19.6861 37.6352 19.2098 37.5679 17.7024C37.5007 16.2007 37.2598 15.1752 36.9123 14.273C36.5537 13.3429 36.0662 12.5584 35.2817 11.7739C34.4972 10.9894 33.7071 10.5075 32.7825 10.1432C31.886 9.79582 30.8605 9.55487 29.3532 9.48763C27.8402 9.42599 27.3583 9.40918 23.5255 9.40918Z" fill="#121212"/>
<path d="M23.5255 11.9532C27.2967 11.9532 27.7393 11.97 29.2299 12.0372C30.6083 12.0989 31.3536 12.3286 31.8523 12.5247C32.5136 12.7825 32.9842 13.0851 33.4774 13.5782C33.9705 14.0713 34.2787 14.542 34.5308 15.2032C34.7213 15.702 34.9567 16.4472 35.0183 17.8257C35.0856 19.3162 35.1024 19.7589 35.1024 23.5301C35.1024 27.3013 35.0856 27.7439 35.0183 29.2345C34.9567 30.613 34.7269 31.3582 34.5308 31.8569C34.2731 32.5182 33.9705 32.9889 33.4774 33.482C32.9842 33.9751 32.5136 34.2833 31.8523 34.5354C31.3536 34.726 30.6083 34.9613 29.2299 35.0229C27.7393 35.0902 27.2967 35.107 23.5255 35.107C19.7543 35.107 19.3116 35.0902 17.8211 35.0229C16.4426 34.9613 15.6973 34.7316 15.1986 34.5354C14.5374 34.2777 14.0667 33.9751 13.5736 33.482C13.0805 32.9889 12.7723 32.5182 12.5201 31.8569C12.3296 31.3582 12.0943 30.613 12.0326 29.2345C11.9654 27.7439 11.9486 27.3013 11.9486 23.5301C11.9486 19.7589 11.9654 19.3162 12.0326 17.8257C12.0943 16.4472 12.324 15.702 12.5201 15.2032C12.7779 14.542 13.0805 14.0713 13.5736 13.5782C14.0667 13.0851 14.5374 12.7769 15.1986 12.5247C15.6973 12.3342 16.4426 12.0989 17.8211 12.0372C19.3116 11.9644 19.7599 11.9532 23.5255 11.9532Z" fill="#121212"/>
<path d="M23.5264 16.2788C19.5254 16.2788 16.2754 19.5233 16.2754 23.5298C16.2754 27.5363 19.5198 30.7808 23.5264 30.7808C27.5329 30.7808 30.7773 27.5363 30.7773 23.5298C30.7773 19.5233 27.5329 16.2788 23.5264 16.2788ZM23.5264 28.2311C20.9263 28.2311 18.8194 26.1242 18.8194 23.5242C18.8194 20.9241 20.9263 18.8172 23.5264 18.8172C26.1264 18.8172 28.2333 20.9241 28.2333 23.5242C28.2333 26.1242 26.1264 28.2311 23.5264 28.2311Z" fill="#C0C0C0"/>
<path d="M31.0634 17.6799C31.998 17.6799 32.7556 16.9223 32.7556 15.9877C32.7556 15.0531 31.998 14.2954 31.0634 14.2954C30.1287 14.2954 29.3711 15.0531 29.3711 15.9877C29.3711 16.9223 30.1287 17.6799 31.0634 17.6799Z" fill="#C0C0C0"/>
</svg>
